<svg xmlns="http://www.w3.org/2000/svg" width="35.466" height="31.293" viewBox="0 0 35.466 31.293"><defs><style>.a{fill:#0d98ba;}</style></defs><path class="a" d="M34.427,36.385H25.033V34.321a4.2,4.2,0,0,0-4.2-4.2H14.629a4.2,4.2,0,0,0-4.2,4.2v2.065H1.039A1.039,1.039,0,0,0,0,37.424V56.3a5.123,5.123,0,0,0,5.117,5.117H30.349A5.123,5.123,0,0,0,35.467,56.3V37.424A1.039,1.039,0,0,0,34.427,36.385ZM20.091,49.945a2.358,2.358,0,1,1-4.715,0V47.587h4.715Zm1.039-4.436H14.337A1.039,1.039,0,0,0,13.3,46.548v1.887C7.255,47.124,2.726,43.205,2.143,38.463H33.324c-.583,4.742-5.112,8.661-11.155,9.972V46.548a1.039,1.039,0,0,0-1.039-1.039ZM12.512,34.321A2.12,2.12,0,0,1,14.629,32.2h6.208a2.12,2.12,0,0,1,2.117,2.117v2.065H12.512V34.321ZM33.388,56.3a3.043,3.043,0,0,1-3.039,3.039H5.117A3.043,3.043,0,0,1,2.078,56.3V43.822a14.586,14.586,0,0,0,3.227,3.287,19.575,19.575,0,0,0,8.037,3.459,4.435,4.435,0,0,0,8.782,0,19.576,19.576,0,0,0,8.037-3.459,14.587,14.587,0,0,0,3.227-3.287Z" transform="translate(0 -30.125)"/></svg>