<svg xmlns="http://www.w3.org/2000/svg" width="22.767" height="22.767" viewBox="0 0 22.767 22.767"><defs><style>.a{fill:#0d98ba;}</style></defs><path class="a" d="M21.14,14.625H1.626c-.9,0-1.626.425-1.626.949v.949c0,.524.728.949,1.626.949H21.14c.9,0,1.626-.425,1.626-.949v-.949C22.767,15.05,22.038,14.625,21.14,14.625Z" transform="translate(0 -4.665)"/><path class="a" d="M21.14,0H1.626C.728,0,0,.425,0,.949V1.9c0,.524.728.949,1.626.949H21.14c.9,0,1.626-.425,1.626-.949V.949C22.767.425,22.038,0,21.14,0Z" transform="translate(12.806 0) rotate(90)"/></svg>