<svg xmlns="http://www.w3.org/2000/svg" width="27.478" height="22.317" viewBox="0 0 27.478 22.317"><defs><style>.a{fill:#0d98ba;}</style></defs><path class="a" d="M24.653,8.943c.017.244.017.488.017.732C24.671,17.12,19,25.7,8.648,25.7A15.914,15.914,0,0,1,0,23.17a11.65,11.65,0,0,0,1.36.07,11.278,11.278,0,0,0,6.991-2.406,5.641,5.641,0,0,1-5.265-3.905,7.1,7.1,0,0,0,1.064.087,5.956,5.956,0,0,0,1.482-.192A5.632,5.632,0,0,1,1.116,11.3v-.07a5.672,5.672,0,0,0,2.546.715A5.64,5.64,0,0,1,1.918,4.409,16.007,16.007,0,0,0,13.53,10.3a6.357,6.357,0,0,1-.139-1.29,5.637,5.637,0,0,1,9.746-3.853A11.087,11.087,0,0,0,26.711,3.8a5.616,5.616,0,0,1-2.476,3.1,11.29,11.29,0,0,0,3.243-.872,12.106,12.106,0,0,1-2.824,2.912Z" transform="translate(0 -3.381)"/></svg>