<svg xmlns="http://www.w3.org/2000/svg" width="22.659" height="22.651" viewBox="0 0 22.659 22.651"><defs><style>.a{fill:#0d98ba;}</style></defs><path class="a" d="M11.327,7.756a5.807,5.807,0,1,0,5.808,5.807A5.8,5.8,0,0,0,11.327,7.756Zm0,9.583A3.776,3.776,0,1,1,15.1,13.563,3.783,3.783,0,0,1,11.327,17.339Zm7.4-9.82a1.355,1.355,0,1,1-1.355-1.355A1.351,1.351,0,0,1,18.727,7.518Zm3.847,1.375a6.7,6.7,0,0,0-1.83-4.746A6.749,6.749,0,0,0,16,2.317c-1.87-.106-7.476-.106-9.347,0A6.739,6.739,0,0,0,1.9,4.142,6.725,6.725,0,0,0,.074,8.888c-.106,1.87-.106,7.475,0,9.345A6.7,6.7,0,0,0,1.9,22.979a6.757,6.757,0,0,0,4.747,1.83c1.87.106,7.476.106,9.347,0a6.7,6.7,0,0,0,4.747-1.83,6.747,6.747,0,0,0,1.83-4.746c.106-1.87.106-7.47,0-9.34ZM20.158,20.24A3.823,3.823,0,0,1,18,22.393c-1.491.591-5.03.455-6.678.455s-5.191.131-6.678-.455A3.823,3.823,0,0,1,2.5,20.24c-.591-1.491-.455-5.029-.455-6.677S1.909,8.372,2.5,6.886A3.823,3.823,0,0,1,4.649,4.733c1.491-.591,5.03-.455,6.678-.455s5.191-.131,6.678.455a3.823,3.823,0,0,1,2.153,2.153c.591,1.491.455,5.029.455,6.677S20.749,18.754,20.158,20.24Z" transform="translate(0.005 -2.238)"/></svg>