<svg xmlns="http://www.w3.org/2000/svg" width="26.367" height="30" viewBox="0 0 26.367 30"><defs><style>.a{fill:#0d98ba;}</style></defs><g transform="translate(-31)"><g transform="translate(34.516 12.305)"><g transform="translate(0)"><path class="a" d="M93.637,210A2.64,2.64,0,0,0,91,212.637v7.148a2.637,2.637,0,1,0,5.273,0v-7.148A2.64,2.64,0,0,0,93.637,210Z" transform="translate(-91 -210)"/></g></g><g transform="translate(31 14.201)"><g transform="translate(0)"><path class="a" d="M32.758,243.106a4.36,4.36,0,0,1,.075-.74,2.631,2.631,0,0,0-1.833,2.5V248.5a2.631,2.631,0,0,0,1.833,2.5,4.359,4.359,0,0,1-.075-.74Z" transform="translate(-31 -242.366)"/></g></g><g transform="translate(41.547 12.305)"><path class="a" d="M220.668,210a2.64,2.64,0,0,0-2.637,2.637v7.148a2.64,2.64,0,0,0,2.637,2.637,2.6,2.6,0,0,0,.755-.124,2.631,2.631,0,0,1-2.513,1.881h-2.8a2.637,2.637,0,1,0,0,1.758h2.8a4.4,4.4,0,0,0,4.395-4.395v-8.906A2.64,2.64,0,0,0,220.668,210Z" transform="translate(-211 -210)"/></g><g transform="translate(55.535 14.201)"><path class="a" d="M449.722,242.366a4.362,4.362,0,0,1,.075.74v7.148a4.362,4.362,0,0,1-.075.74,2.631,2.631,0,0,0,1.833-2.5v-3.633A2.631,2.631,0,0,0,449.722,242.366Z" transform="translate(-449.722 -242.366)"/></g><g transform="translate(31)"><g transform="translate(0)"><path class="a" d="M44.184,0A13.2,13.2,0,0,0,31,13.184v.022a4.352,4.352,0,0,1,1.8-.816,11.412,11.412,0,0,1,22.771,0,4.354,4.354,0,0,1,1.8.816v-.022A13.2,13.2,0,0,0,44.184,0Z" transform="translate(-31)"/></g></g></g></svg>