<svg xmlns="http://www.w3.org/2000/svg" width="22.852" height="26" viewBox="0 0 22.852 26"><defs><style>.a{fill:#fff;}</style></defs><g transform="translate(-31)"><g transform="translate(34.047 10.664)"><g transform="translate(0)"><path class="a" d="M93.285,210A2.288,2.288,0,0,0,91,212.285v6.2a2.285,2.285,0,0,0,4.57,0v-6.2A2.288,2.288,0,0,0,93.285,210Z" transform="translate(-91 -210)"/></g></g><g transform="translate(31 12.308)"><g transform="translate(0)"><path class="a" d="M32.523,243.008a3.779,3.779,0,0,1,.065-.642A2.281,2.281,0,0,0,31,244.531v3.148a2.281,2.281,0,0,0,1.588,2.165,3.779,3.779,0,0,1-.065-.642Z" transform="translate(-31 -242.366)"/></g></g><g transform="translate(40.141 10.664)"><path class="a" d="M219.379,210a2.288,2.288,0,0,0-2.285,2.285v6.2a2.288,2.288,0,0,0,2.285,2.285,2.253,2.253,0,0,0,.655-.107,2.28,2.28,0,0,1-2.178,1.63H215.43a2.285,2.285,0,1,0,0,1.523h2.425A3.813,3.813,0,0,0,221.664,220v-7.719A2.288,2.288,0,0,0,219.379,210Z" transform="translate(-211 -210)"/></g><g transform="translate(52.263 12.308)"><path class="a" d="M449.722,242.366a3.78,3.78,0,0,1,.065.642v6.2a3.781,3.781,0,0,1-.065.642,2.281,2.281,0,0,0,1.588-2.165v-3.148A2.281,2.281,0,0,0,449.722,242.366Z" transform="translate(-449.722 -242.366)"/></g><g transform="translate(31)"><g transform="translate(0)"><path class="a" d="M42.426,0A11.438,11.438,0,0,0,31,11.426v.019a3.772,3.772,0,0,1,1.558-.708,9.891,9.891,0,0,1,19.735,0,3.773,3.773,0,0,1,1.558.708v-.019A11.438,11.438,0,0,0,42.426,0Z" transform="translate(-31)"/></g></g></g></svg>