<svg xmlns="http://www.w3.org/2000/svg" width="21.446" height="21.446" viewBox="0 0 21.446 21.446"><defs><style>.a{fill:#0d98ba;}</style></defs><path class="a" d="M24.231,4.5H6.332A1.75,1.75,0,0,0,4.5,6.17V24.108a1.887,1.887,0,0,0,1.832,1.838H24.225a1.791,1.791,0,0,0,1.721-1.838V6.17A1.644,1.644,0,0,0,24.231,4.5ZM11.148,22.376H8.075V12.823h3.072Zm-1.43-11H9.7a1.577,1.577,0,0,1-1.62-1.648A1.587,1.587,0,0,1,9.734,8.075a1.583,1.583,0,0,1,1.642,1.648A1.586,1.586,0,0,1,9.718,11.371Zm12.658,11H19.3V17.153c0-1.251-.447-2.106-1.559-2.106a1.681,1.681,0,0,0-1.575,1.134,2.069,2.069,0,0,0-.106.754v5.441H12.991V12.823h3.072v1.33A3.11,3.11,0,0,1,18.834,12.6c2.017,0,3.542,1.33,3.542,4.2v5.581Z" transform="translate(-4.5 -4.5)"/></svg>