<svg xmlns="http://www.w3.org/2000/svg" width="68" height="38" viewBox="0 0 68 38">
    <defs>
        <style>.a{fill:#fdfdfd;stroke:#d0d0d0;}.b{fill:#ff5f00;}.c{fill:#ed0006;}.d{fill:#f9a000;}</style>
    </defs>
    <g transform="translate(0.5 0.5)">
        <path class="a" d="M61.59.5a6.868,6.868,0,0,1,3.616.609,4.05,4.05,0,0,1,1.685,1.685A6.868,6.868,0,0,1,67.5,6.41h0V31.59a6.868,6.868,0,0,1-.609,3.616,4.051,4.051,0,0,1-1.685,1.685,6.868,6.868,0,0,1-3.616.609H6.41a6.868,6.868,0,0,1-3.616-.609,4.05,4.05,0,0,1-1.685-1.685A6.868,6.868,0,0,1,.5,31.59h0V6.41a6.868,6.868,0,0,1,.609-3.616A4.05,4.05,0,0,1,2.794,1.109,6.868,6.868,0,0,1,6.41.5H61.59Z" transform="translate(-0.5 -0.5)" />
        <rect class="b" width="11.642" height="19.014" transform="translate(27.459 8.968)" />
        <path class="c" d="M29.158,18.976a12.071,12.071,0,0,1,4.618-9.505,12.092,12.092,0,1,0,0,19.014A12.072,12.072,0,0,1,29.158,18.976Z" transform="translate(-0.5 -0.5)" />
        <path class="d" d="M53.342,18.976a12.092,12.092,0,0,1-19.565,9.506,12.092,12.092,0,0,0,0-19.014,12.092,12.092,0,0,1,19.565,9.505Z" transform="translate(-0.5 -0.5)" />
    </g>
</svg>