<svg width="100" height="55" xmlns="http://www.w3.org/2000/svg" xmlns:xlink="http://www.w3.org/1999/xlink" xmlns:svgjs="http://svgjs.com/svgjs" viewBox="290 589 100 60">
    <svg width="100" height="60" xmlns="http://www.w3.org/2000/svg" xmlns:xlink="http://www.w3.org/1999/xlink" xmlns:svgjs="http://svgjs.com/svgjs" fill="#fff" x="290" y="589">
        <svg xmlns="http://www.w3.org/2000/svg" xmlns:xlink="http://www.w3.org/1999/xlink" width="100" height="60">
            <path paint-order="stroke fill markers" fill-rule="evenodd" d="M4 0h92c2.212 0 4 1.788 4 4v52c0 2.212-1.788 4-4 4H4c-2.212 0-4-1.788-4-4V4c0-2.212 1.788-4 4-4z" />
        </svg>
    </svg>
    <svg width="62" height="26" xmlns="http://www.w3.org/2000/svg" xmlns:xlink="http://www.w3.org/1999/xlink" xmlns:svgjs="http://svgjs.com/svgjs" viewBox="0 0.037 62 25.926" fill="#0d98ba" x="309" y="606">
        <svg xmlns="http://www.w3.org/2000/svg" width="62" height="26" viewBox="0.022 0.046 61.957 25.908">
            <path paint-order="stroke fill markers" fill-rule="evenodd" d="M6.496 11.7c-1.335-.498-2.067-.885-2.067-1.494 0-.516.421-.811 1.17-.811 1.373 0 2.78.535 3.75 1.014l.549-3.411C9.13 6.629 7.557 6.02 5.38 6.02c-1.536 0-2.816.405-3.73 1.161-.952.793-1.446 1.936-1.446 3.32 0 2.507 1.519 3.577 3.988 4.48 1.59.572 2.121.978 2.121 1.604 0 .609-.512.96-1.445.96-1.152 0-3.054-.572-4.298-1.31l-.548 3.448c1.06.609 3.036 1.236 5.084 1.236 1.628 0 2.981-.387 3.896-1.125 1.024-.811 1.554-2.01 1.554-3.559 0-2.563-1.554-3.632-4.06-4.536zm12.992-2.01l.549-3.393H17.14V2.178l-3.894.646-.563 3.473-1.37.224-.512 3.169h1.877v6.657c0 1.733.439 2.932 1.335 3.67.75.608 1.829.903 3.347.903 1.17 0 1.883-.203 2.377-.332v-3.596c-.274.074-.896.203-1.317.203-.896 0-1.28-.46-1.28-1.512V9.69h2.348zm8.699-3.591c-1.28 0-2.305.678-2.707 1.895l-.274-1.697h-3.969v14.346h4.536v-9.312c.567-.7 1.371-.954 2.469-.954.238 0 .494 0 .804.055V6.21a3.665 3.665 0 0 0-.86-.111zm4.243-1.222c1.317 0 2.378-1.088 2.378-2.415 0-1.346-1.061-2.416-2.378-2.416a2.39 2.39 0 0 0-2.396 2.416 2.402 2.402 0 0 0 2.396 2.415zm-2.286 1.42h4.554v14.346h-4.554V6.297zm17.459 1.29c-.805-1.05-1.92-1.566-3.347-1.566-1.317 0-2.469.553-3.548 1.714l-.238-1.438h-3.987v19.657l4.536-.756v-4.61a6.88 6.88 0 0 0 2.048.332c1.134 0 2.78-.295 4.06-1.697 1.226-1.346 1.848-3.43 1.848-6.177 0-2.434-.458-4.278-1.372-5.458zm-3.768 8.852c-.365.7-.932 1.07-1.59 1.07-.458 0-.86-.093-1.226-.277v-6.823c.768-.811 1.463-.903 1.719-.903 1.152 0 1.72 1.254 1.72 3.706 0 1.401-.202 2.49-.623 3.227zm18.143-3.098c0-2.286-.494-4.094-1.463-5.366-.988-1.29-2.469-1.954-4.353-1.954-3.859 0-6.255 2.876-6.255 7.486 0 2.582.64 4.518 1.902 5.753 1.134 1.107 2.762 1.66 4.865 1.66 1.939 0 3.731-.461 4.865-1.217l-.494-3.135c-1.115.609-2.414.94-3.877.94-.878 0-1.481-.184-1.92-.571-.476-.406-.75-1.07-.841-2.01h7.516c.019-.221.055-1.254.055-1.586zm-7.608-1.217c.128-2.047.677-3.006 1.719-3.006 1.024 0 1.555.978 1.628 3.006H54.37z" />
        </svg>
    </svg>
</svg>